<?xml version="1.0" encoding="UTF-8"?>
<svg id="Layer_2" data-name="Layer 2" xmlns="http://www.w3.org/2000/svg" viewBox="0 0 353.26 311.52">
  <g id="Layer_1-2" data-name="Layer 1" fill="#000">
    <g>
      <path d="M101.6,253.76l-34.72-.77c-5.64-.12-11.94-4.72-16.68-8.09C-3.2,206.98-14.36,129.21,18.46,72.66,34.52,45,59.21,24.26,88.26,11.48,110.25,2.85,132.33-.49,156.06.06c31.6.75,63.46,9.38,88.7,31.01-43.81-18.32-91.98-20.53-135.15-1.5C56.81,52.83,27.9,108.01,37.64,164.55c6.58,38.17,28.7,70.09,63.96,89.21Z"/>
      <circle cx="119.83" cy="69.81" r="17.39"/>
      <circle cx="75.99" cy="121.35" r="13.1"/>
      <circle cx="83.71" cy="171.58" r="8.27"/>
      <path d="M353.26,88.85c-2.58,1.25-5.69,1.72-8.2,1.37l-25.25-3.59c4.84-4.4,11.11-4.06,16.37-2.58l17.08,4.81Z"/>
      <path d="M333.39,108.94c-4.5-.14-7.22-2.41-10.35-4.81l-11.04-8.46c6.82-6.31,13.91,3.37,21.39,13.27Z"/>
      <g>
        <path d="M284.83,290.16l-112.76.18c-18.24.03-35.23-1.7-52.94-5.42l-42.04-8.85c-13.26-2.79-32.49-.07-34.79,11-.68,3.29,1.15,7.52,3.96,9.96,10.94,9.47,33.48,6.74,50.41,4.12-13.83,12.54-44.03,13.19-59.21,4.66-7.32-4.11-12.38-11.28-12.19-19.05.2-8.27,4.22-15.48,11.64-19.79,27.39-15.9,62.63-.82,90.37-5.46,5.44-.91,6.72-7.66,7.33-12.46l-12.17,4.95,5.69-21.61-18.06,9.78c3.98-11.18,10.36-21.36,17.82-31.84l-19.33,4.04c9.17-14.58,20.27-26.22,34.39-35.24,5-3.2,10.24-4.89,15.58-7.91l-26.01,1.79,16.05-9.31c10.15-5.89,20.8-9.62,31.94-14.29l-16.08-4.76c12.23-3.86,23.88-5.48,36.49-11.78l-16.38-1.18,11.72-5.36,14.86-6.01c-10.09-.46-20.63-1.21-28.09-8.15l-12.82-14.27,10.13-20.4c8.11-.97,15.62-2.08,23.45-.97,8.81,1.24,15.6,6.39,23.42,10.96-4.49-7.88-12.14-13.13-20.75-15.69-4.69-1.39-9.67-.36-15.32,0l2.41-9.47c8.51-1.51,17.58-3.63,25.89-3.05l16.93,15.86-7.96,7.26c10.3-4.18,18.39-8.32,28.69-10.17,20.49-3.67,40.24-7.79,61.46-12.99-.18,14.34-6.5,27.65-15.94,38.6-1.55,1.79-4.46,5.1-4.64,7.22-.51,5.95-.98,11.66-3.11,16.39l-4.56-11.03-8.35,24.24-5.07-11.72-8.66,20.53c-2.83,6.72-.59,14.19-1.56,22.16-2.43-3.73-3.88-7.45-5.41-11.75-2.2,10.37-1.1,19.22.89,29.9-3.68-2.21-4.84-5.66-7.02-9.62-.17,4.83,1.98,9.96,4.39,14.1,8.06-3.78,15.86-6.87,24.38-6.78,12.85.14,22.18,11.16,21.22,23.78-.43,5.59-2.83,10.79-5.61,15.26l-2.79-16.72c-3.27,6.34-6.24,10.46-11.75,13.64l.84-10.91c.11-1.4-1.74-4.18-2.81-4.96-4.42-3.21-13.29,1.84-15.89,6.57-2.28,4.15-3.31,8.39-4.7,13.27l-4.33-12.4-4.72,12.46c-4.99-9.89-14.06-16.7-24.74-15.79l-22.75,1.94,20.7,3.04c17.79,4.13,27.66,23.21,19.69,39.83l-1.67-9.48c-2.31,5.7-4.51,12.09-8.93,16.84-4.65,4.99-10.32,8-15.96,12.29l30.16-5.27c11.62-2.03,22.29,2.44,27.9,12.55l7.08,12.76ZM270.61,90.03c1.24-1.57.4-5.96-.97-6.9-1.58-1.08-4.23-1.92-6.61-2.08-4.16-.28-9.46,1.23-9.12,6.32.2,2.98,4.37,5.62,6.78,5.95,3.17.43,7.41-.12,9.92-3.29Z"/>
        <path d="M322.33,75.17c4.29-5.93,16.74-10.02,25.05-9.83-6.92,6.2-15.21,9.11-25.05,9.83Z"/>
      </g>
    </g>
  </g>
</svg>